PathFileType	4	(X/Y/Z)	OpenSim_static_markers.trc
DataRate	CameraRate	NumFrames	NumMarkers	Units	OrigDataRate	OrigDataStartFrame	OrigNumFrames
100	100	6	41	m	100	1	6
Frame#	Time	APEX	L1MT	L2MT	L5MT	LASI	LCAL	LFBH	LGTR	LLEP	LLML	LMEP	LMML	LPS1	LPS2	LSH1	LSH2	LSH3	LTH1	LTH2	LTH3	LTTB	R1MT	R2MT	R5MT	RASI	RCAL	RFBH	RGTR	RLEP	RLML	RMEP	RMML	RPS1	RPS2	RSH1	RSH2	RSH3	RTH1	RTH2	RTH3	RTTB
				X1	Y1	Z1	X2	Y2	Z2	X3	Y3	Z3	X4	Y4	Z4	X5	Y5	Z5	X6	Y6	Z6	X7	Y7	Z7	X8	Y8	Z8	X9	Y9	Z9	X10	Y10	Z10	X11	Y11	Z11	X12	Y12	Z12	X13	Y13	Z13	X14	Y14	Z14	X15	Y15	Z15	X16	Y16	Z16	X17	Y17	Z17	X18	Y18	Z18	X19	Y19	Z19	X20	Y20	Z20	X21	Y21	Z21	X22	Y22	Z22	X23	Y23	Z23	X24	Y24	Z24	X25	Y25	Z25	X26	Y26	Z26	X27	Y27	Z27	X28	Y28	Z28	X29	Y29	Z29	X30	Y30	Z30	X31	Y31	Z31	X32	Y32	Z32	X33	Y33	Z33	X34	Y34	Z34	X35	Y35	Z35	X36	Y36	Z36	X37	Y37	Z37	X38	Y38	Z38	X39	Y39	Z39	X40	Y40	Z40	X41		Y41	Z41	

1	0	0.70549200	1.84671600	-0.53685000	0.71616300	0.05832300	-0.62406000	0.71810000	0.07032600	-0.66767700	0.66047300	0.05248000	-0.71972500	0.69724600	1.04218400	-0.64252300	0.49108700	0.05643500	-0.60999900	0.62948200	0.47843000	-0.69751500	0.44863100	0.91045000	-0.62172300	0.66117000	0.54475800	-0.67976400	0.55624300	0.10224800	-0.67276200	0.67418300	0.52056700	-0.56755300	0.60329500	0.11565300	-0.58922600	0.49989700	1.10850000	-0.55441600	0.48883700	1.03857100	-0.55024800	0.58050600	0.44671400	-0.70715400	0.56949700	0.34434500	-0.70699300	0.62858200	0.33665000	-0.70803700	0.62229800	0.83463000	-0.71418700	0.62872400	0.73180600	-0.70088400	0.68743800	0.73580200	-0.69457700	0.68880900	0.45309200	-0.64097200	0.74219500	0.05838700	-0.35510200	0.74375000	0.06925900	-0.30436700	0.68596000	0.05010700	-0.25847500	0.67899400	1.05695600	-0.36995200	0.52308000	0.05369700	-0.37425200	0.62946800	0.48019800	-0.30192100	0.56868400	0.97331800	-0.32935700	0.65313100	0.51833000	-0.31609500	0.59080300	0.10611900	-0.30863900	0.67716900	0.51121700	-0.43441000	0.61957200	0.10581600	-0.39514200	0.49942400	1.11651700	-0.50483600	0.48838400	1.04144100	-0.48354900	0.66725200	0.44604400	-0.29933700	0.65509900	0.34204500	-0.29543500	0.59769100	0.35085700	-0.28251000	0.67351400	0.83693000	-0.28679600	0.69327700	0.73985400	-0.30608900	0.63410900	0.72944300	-0.30479100	0.69505100	0.45462900	-0.35086100
2	0.01000000	0.70654200	1.84624600	-0.53567300	0.71625400	0.05823900	-0.62406400	0.71808400	0.07034300	-0.66782200	0.66048500	0.05246300	-0.71974800	0.69796200	1.04180300	-0.64173300	0.49112800	0.05649100	-0.60995600	0.63207500	0.47807200	-0.69736600	0.45181300	0.91080900	-0.62276500	0.66424200	0.54446400	-0.67966500	0.55641200	0.10229800	-0.67270700	0.67715200	0.52003100	-0.56728400	0.60348700	0.11560500	-0.58914900	0.50056700	1.10798400	-0.55340600	0.48911500	1.03843300	-0.54953700	0.58303100	0.44675400	-0.70687900	0.57129000	0.34435000	-0.70664000	0.63036100	0.33630300	-0.70778900	0.62358800	0.83403300	-0.71339200	0.63050300	0.73114300	-0.70030300	0.68912200	0.73537600	-0.69408400	0.69158000	0.45228800	-0.64079700	0.74228800	0.05827900	-0.35510200	0.74385000	0.06910900	-0.30438600	0.68600700	0.05009900	-0.25845500	0.67968900	1.05649100	-0.36927400	0.52314200	0.05385900	-0.37425700	0.63254800	0.47979400	-0.30110900	0.56952000	0.97260000	-0.32851800	0.65624700	0.51789200	-0.31531700	0.59106400	0.10614400	-0.30867700	0.68010500	0.51090100	-0.43363600	0.61980500	0.10592400	-0.39524600	0.50022800	1.11616300	-0.50363400	0.48908500	1.04097300	-0.48230000	0.66988800	0.44527900	-0.29894700	0.65730000	0.34167200	-0.29492500	0.59982100	0.35074400	-0.28202000	0.67562100	0.83582700	-0.28691600	0.69530100	0.73950000	-0.30547200	0.63625800	0.72890600	-0.30421700	0.69781300	0.45408200	-0.35006800
3	0.02000000	0.70756900	1.84566100	-0.53448900	0.71631800	0.05816300	-0.62408600	0.71811400	0.07023500	-0.66789800	0.66048600	0.05240100	-0.71977000	0.69829200	1.04127400	-0.64095600	0.49118100	0.05658400	-0.60993600	0.63515800	0.47758200	-0.69716700	0.45499000	0.91116300	-0.62380600	0.66739200	0.54391400	-0.67946700	0.55657900	0.10239700	-0.67260100	0.68068200	0.51918900	-0.56679400	0.60377200	0.11561200	-0.58906900	0.50114500	1.10752000	-0.55255800	0.48961000	1.03794900	-0.54845700	0.58582900	0.44671700	-0.70666400	0.57335800	0.34434900	-0.70639600	0.63233100	0.33586000	-0.70759800	0.62505700	0.83329500	-0.71246900	0.63246600	0.73036000	-0.69968200	0.69110600	0.73493000	-0.69349200	0.69455400	0.45143200	-0.64075000	0.74238400	0.05815800	-0.35509200	0.74394200	0.06897900	-0.30440500	0.68604000	0.05007700	-0.25845000	0.68035600	1.05580300	-0.36843800	0.52302100	0.05412500	-0.37415900	0.63571000	0.47923900	-0.30045000	0.57011000	0.97190000	-0.32679400	0.65957100	0.51735300	-0.31444100	0.59130300	0.10616400	-0.30870400	0.68343600	0.51065200	-0.43300800	0.62006800	0.10604700	-0.39533700	0.50101700	1.11550000	-0.50254500	0.48961000	1.04051100	-0.48125800	0.67281500	0.44474400	-0.29836400	0.65937100	0.34103600	-0.29458600	0.60225400	0.35050100	-0.28169900	0.67772800	0.83472200	-0.28703700	0.69753000	0.73927300	-0.30459800	0.63849500	0.72825000	-0.30334700	0.70091600	0.45338900	-0.34935000
4	0.03000000	0.70849600	1.84495700	-0.53330200	0.71642100	0.05806700	-0.62410100	0.71840600	0.06993600	-0.66782800	0.66051300	0.05235000	-0.71980100	0.69833400	1.04053500	-0.64032700	0.49125500	0.05669500	-0.60990300	0.63864000	0.47658000	-0.69675700	0.45817200	0.91151800	-0.62484700	0.67102100	0.54290100	-0.67920900	0.55676400	0.10254600	-0.67250400	0.68438000	0.51812800	-0.56650800	0.60424900	0.11576800	-0.58894500	0.50184300	1.10685800	-0.55131600	0.48995700	1.03735000	-0.54739600	0.58899400	0.44653200	-0.70634500	0.57574100	0.34450300	-0.70651900	0.63463000	0.33543500	-0.70777000	0.62658100	0.83238200	-0.71171400	0.63466900	0.72949100	-0.69904200	0.69327600	0.73431400	-0.69296300	0.69809300	0.45056500	-0.64083400	0.74247400	0.05802000	-0.35508500	0.74405500	0.06884600	-0.30439900	0.68609300	0.05006900	-0.25843500	0.68088700	1.05511800	-0.36780300	0.52285200	0.05448000	-0.37406500	0.63920400	0.47879900	-0.29995900	0.57076700	0.97147100	-0.32500600	0.66327700	0.51658700	-0.31347300	0.59157900	0.10620800	-0.30871000	0.68682300	0.51012600	-0.43213500	0.62040500	0.10624900	-0.39537500	0.50165900	1.11486400	-0.50162400	0.48998700	1.03999700	-0.48032000	0.67626800	0.44437300	-0.29735900	0.66176700	0.34031500	-0.29417800	0.60469300	0.35020300	-0.28133200	0.67983500	0.83361600	-0.28715800	0.69985500	0.73897900	-0.30389600	0.64083800	0.72754900	-0.30245500	0.70425200	0.45247300	-0.34869800
5	0.04000000	0.70939900	1.84405000	-0.53221200	0.71656300	0.05790700	-0.62410800	0.71856000	0.06960600	-0.66782900	0.66054400	0.05229200	-0.71984300	0.69820900	1.03952700	-0.63916900	0.49132100	0.05684600	-0.60987900	0.64235300	0.47569200	-0.69645900	0.46135700	0.91187300	-0.62588500	0.67513900	0.54222100	-0.67923100	0.55695900	0.10266300	-0.67241400	0.68875900	0.51735100	-0.56619500	0.60458000	0.11569100	-0.58889800	0.50231600	1.10625800	-0.55031200	0.49048000	1.03651800	-0.54619400	0.59257200	0.44647000	-0.70614600	0.57834200	0.34454600	-0.70620900	0.63713800	0.33492500	-0.70752300	0.62780000	0.83098200	-0.71113100	0.63722500	0.72828900	-0.69855300	0.69538600	0.73360300	-0.69239700	0.70198000	0.44943200	-0.64070600	0.74258700	0.05791000	-0.35508200	0.74416200	0.06867000	-0.30437900	0.68614500	0.05004900	-0.25844100	0.68122300	1.05405700	-0.36718400	0.52258600	0.05494400	-0.37416400	0.64293300	0.47836900	-0.29934500	0.57150700	0.97082700	-0.32373500	0.66736300	0.51608800	-0.31283200	0.59187700	0.10629800	-0.30872100	0.69064100	0.50964300	-0.43149100	0.62083400	0.10644100	-0.39547300	0.50199200	1.11431200	-0.50085000	0.49023200	1.03940500	-0.47950400	0.67967800	0.44366300	-0.29664800	0.66433400	0.33963100	-0.29403300	0.60749800	0.34996800	-0.28098200	0.68194300	0.83251200	-0.28727800	0.70247300	0.73856000	-0.30325900	0.64353600	0.72674500	-0.30163400	0.70771900	0.45167900	-0.34797700
6	0.05000000	0.71004300	1.84303400	-0.53124000	0.71673000	0.05775900	-0.62411900	0.71866000	0.06935000	-0.66786600	0.66058900	0.05223300	-0.71986300	0.69828900	1.03852800	-0.63817200	0.49143200	0.05702300	-0.60982900	0.64673100	0.47485100	-0.69624900	0.46453500	0.91222800	-0.62692600	0.67982700	0.54129100	-0.67910900	0.55732500	0.10293800	-0.67218200	0.69346000	0.51625700	-0.56592100	0.60518200	0.11574400	-0.58873000	0.50265400	1.10556700	-0.54958100	0.49051000	1.03586000	-0.54544200	0.59656300	0.44623400	-0.70594000	0.58131000	0.34428500	-0.70581300	0.64000200	0.33420200	-0.70725300	0.62953600	0.82956800	-0.71041000	0.63971000	0.72681500	-0.69819500	0.69788900	0.73285200	-0.69185900	0.70614500	0.44815200	-0.64062200	0.74271200	0.05774500	-0.35506000	0.74430000	0.06843300	-0.30440100	0.68620700	0.05001800	-0.25842700	0.68152900	1.05303900	-0.36655600	0.52257500	0.05540000	-0.37417300	0.64703600	0.47785800	-0.29857800	0.57214400	0.96975400	-0.32295500	0.67137800	0.51527500	-0.31227400	0.59239400	0.10645800	-0.30882700	0.69506900	0.50935800	-0.43090600	0.62130200	0.10655400	-0.39553600	0.50207300	1.11357600	-0.50007800	0.49027300	1.03865100	-0.47838100	0.68343900	0.44275900	-0.29616900	0.66717100	0.33905500	-0.29386400	0.61042300	0.34980700	-0.28055100	0.68405000	0.83140700	-0.28739800	0.70517600	0.73820500	-0.30262900	0.64643600	0.72571700	-0.30083800	0.71170900	0.45094400	-0.34746000
